{
  "accessors": [
    {
      "bufferView": 2,
      "componentType": 5126,
      "count": 55504,
      "max": [
        -0.11375146359205246,
        0.32945293188095093,
        25.895847320556641
      ],
      "min": [
        -0.44304409623146057,
        -0.26455444097518921,
        24.708972930908203
      ],
      "type": "VEC3"
    },
    {
      "bufferView": 2,
      "byteOffset": 666048,
      "componentType": 5126,
      "count": 55504,
      "max": [
        0.99999719858169556,
        1,
        0.99999690055847168
      ],
      "min": [
        -0.99999922513961792,
        -0.99999982118606567,
        -0.99931162595748901
      ],
      "type": "VEC3"
    },
    {
      "bufferView": 3,
      "componentType": 5126,
      "count": 55504,
      "max": [
        0.99982595443725586,
        0.99991685152053833,
        0.99993729591369629,
        1
      ],
      "min": [
        -0.99997580051422119,
        -0.99995452165603638,
        -0.9991188645362854,
        -1
      ],
      "type": "VEC4"
    },
    {
      "bufferView": 3,
      "byteOffset": 888064,
      "componentType": 5126,
      "count": 55504,
      "max": [
        0.99607843160629272,
        0.99607843160629272,
        0.99607843160629272,
        1
      ],
      "min": [
        0,
        0,
        0,
        0
      ],
      "type": "VEC4"
    },
    {
      "bufferView": 1,
      "componentType": 5126,
      "count": 55504,
      "max": [
        0.99799990653991699,
        0.99349868297576904
      ],
      "min": [
        0.0020000000949949026,
        0.0020000000949949026
      ],
      "type": "VEC2"
    },
    {
      "bufferView": 0,
      "componentType": 5125,
      "count": 178758,
      "max": [
        55503
      ],
      "min": [
        0
      ],
      "type": "SCALAR"
    }
  ],
  "asset": {
    "extras": {
      "author": "3dhdscan (https://sketchfab.com/3dhdscan)",
      "license": "CC-BY-4.0 (http://creativecommons.org/licenses/by/4.0/)",
      "source": "https://sketchfab.com/models/56ad7c10e5bc486baca19d2e101e51e0",
      "title": "Bust Miroslav Tyrš"
    },
    "generator": "Sketchfab-3.19.6",
    "version": "2.0"
  },
  "bufferViews": [
    {
      "buffer": 0,
      "byteLength": 715032,
      "byteOffset": 0,
      "name": "floatBufferViews",
      "target": 34963
    },
    {
      "buffer": 0,
      "byteLength": 444032,
      "byteOffset": 715032,
      "byteStride": 8,
      "name": "floatBufferViews",
      "target": 34962
    },
    {
      "buffer": 0,
      "byteLength": 1332096,
      "byteOffset": 1159064,
      "byteStride": 12,
      "name": "floatBufferViews",
      "target": 34962
    },
    {
      "buffer": 0,
      "byteLength": 1776128,
      "byteOffset": 2491160,
      "byteStride": 16,
      "name": "floatBufferViews",
      "target": 34962
    }
  ],
  "buffers": [
    {
      "byteLength": 4267288,
      "uri": "scene.bin"
    }
  ],
  "images": [
    {
      "uri": "textures/busta_tyrs_DiffuseMap_baseColor.jpeg"
    },
    {
      "uri": "textures/busta_tyrs_DiffuseMap_normal.jpeg"
    },
    {
      "uri": "textures/busta_tyrs_DiffuseMap_metallicRoughness.png"
    }
  ],
  "materials": [
    {
      "doubleSided": true,
      "name": "busta_tyrs_DiffuseMap",
      "normalTexture": {
        "index": 1,
        "scale": 0.63586128050000001,
        "texCoord": 0
      },
      "occlusionTexture": {
        "index": 2,
        "strength": 1,
        "texCoord": 0
      },
      "pbrMetallicRoughness": {
        "baseColorFactor": [
          1,
          1,
          1,
          1
        ],
        "baseColorTexture": {
          "index": 0,
          "texCoord": 0
        },
        "metallicFactor": 0,
        "roughnessFactor": 0.72999237799999994
      }
    }
  ],
  "meshes": [
    {
      "name": "busta_tyrs_busta_tyrs_DiffuseMap_0",
      "primitives": [
        {
          "attributes": {
            "COLOR_0": 3,
            "NORMAL": 1,
            "POSITION": 0,
            "TANGENT": 2,
            "TEXCOORD_0": 4
          },
          "indices": 5,
          "material": 0,
          "mode": 4
        }
      ]
    }
  ],
  "nodes": [
    {
      "children": [
        1
      ],
      "name": "RootNode (gltf orientation matrix)",
      "rotation": [
        -0.70710678118654746,
        -0,
        -0,
        0.70710678118654757
      ]
    },
    {
      "children": [
        2
      ],
      "matrix": [
        1,
        0,
        0,
        0,
        0,
        -1,
        0,
        0,
        0,
        0,
        -1,
        0,
        0,
        0.00017588479386176914,
        -0.0073632076382637024,
        1
      ],
      "name": "RootNode (model correction matrix)"
    },
    {
      "children": [
        3
      ],
      "matrix": [
        1,
        0,
        0,
        0,
        0,
        -1,
        0,
        0,
        0,
        0,
        -1,
        0,
        0,
        0,
        0,
        1
      ],
      "name": "busta_tyrs.FBX"
    },
    {
      "children": [
        4
      ],
      "name": "RootNode"
    },
    {
      "children": [
        5
      ],
      "matrix": [
        -0.017177325030837132,
        -99.970285188846475,
        -2.4375775270149882,
        0,
        99.997507929142344,
        3.1925799659493492e-05,
        -0.70598014143022425,
        0,
        0.70577113898053467,
        -2.4376380493593515,
        99.967793853018975,
        0,
        0,
        0,
        0,
        1
      ],
      "name": "busta_tyrs"
    },
    {
      "children": [
        6
      ],
      "matrix": [
        1,
        0,
        -0,
        0,
        0,
        1,
        0,
        0,
        0,
        0,
        1,
        0,
        0.27839776873588562,
        -0.032449245452880859,
        -25.302408218383789,
        1
      ],
      "name": ""
    },
    {
      "mesh": 0,
      "name": "busta_tyrs_busta_tyrs_DiffuseMap_0"
    }
  ],
  "samplers": [
    {
      "magFilter": 9729,
      "minFilter": 9987,
      "wrapS": 10497,
      "wrapT": 10497
    }
  ],
  "scene": 0,
  "scenes": [
    {
      "name": "OSG_Scene",
      "nodes": [
        0
      ]
    }
  ],
  "textures": [
    {
      "sampler": 0,
      "source": 0
    },
    {
      "sampler": 0,
      "source": 1
    },
    {
      "sampler": 0,
      "source": 2
    }
  ]
}

